# xmcd
#
# Track frame offsets:
# 150
# 19432
# 32746
# 47824
# 66385
#
# Disc length: 1142 seconds
#
# Revision: 0
# Processed by: cddbd v1.5.1PL2 Copyright (c) Steve Scherf et al.
# Submitted via: Audion 3.0.2 (http://www.panic.com/audion/)
#
DISCID=44047405
DTITLE=Julie Neumark - Take Me
DYEAR=1900
DGENRE=
TTITLE0=Dirty Laundry
TTITLE1=Sexy
TTITLE2=Take Me
TTITLE3=Writers Remorse
TTITLE4=Your Friend
EXTD=
EXTT0=
EXTT1=
EXTT2=
EXTT3=
EXTT4=
PLAYORDER=
